#!OML:ASF F:\VICON\USERDATA\INSTALL\rory3\rory3.ASF
:FULLY-SPECIFIED
:DEGREES
232
root 0.512361 17.9935 10.8509 -4.68007 -2.27328 -7.66397
lowerback 14.3242 0.0912785 6.17391
upperback -0.661532 1.5184 3.87128
thorax -8.74223 0.547905 0.345375
lowerneck -10.6708 -1.07699 -2.34979
upperneck 28.0294 -0.887977 -0.462638
head 10.7726 -0.707187 0.129358
rclavicle -1.51107e-015 -3.57812e-014
rhumerus -28.7743 -3.32485 -79.2369
rradius 37.085
rwrist -3.24143
rhand -14.1729 9.67082
rfingers 7.12502
rthumb 11.9624 -19.9674
lclavicle -1.51107e-015 -3.57812e-014
lhumerus -40.423 2.99737 87.8901
lradius 41.1525
lwrist 5.48095
lhand -11.8652 51.5897
lfingers 7.12502
lthumb 14.1869 81.0852
rfemur 12.8994 5.18875 35.8461
rtibia 13.6041
rfoot -13.7951 -7.54965
rtoes 13.5495
lfemur -26.0303 -8.22093 -10.4494
ltibia 24.9422
lfoot -11.3126 11.6251
ltoes -18.8587
233
root 0.528464 18.0237 10.9996 -4.26346 -2.28975 -7.23945
lowerback 13.9836 0.174113 5.90027
upperback -0.755235 1.54275 3.70432
thorax -8.64932 0.56896 0.31604
lowerneck -10.8777 -1.17301 -2.53457
upperneck 28.1031 -1.02349 -0.297777
head 10.8455 -0.769607 0.202372
rclavicle -3.44243e-015 -3.69739e-014
rhumerus -28.4473 -3.34704 -79.2479
rradius 36.9509
rwrist -3.1389
rhand -14.1149 9.35186
rfingers 7.12502
rthumb 12.0183 -20.2831
lclavicle -3.44243e-015 -3.69739e-014
lhumerus -40.2496 3.20219 87.825
lradius 40.864
lwrist 5.38605
lhand -11.8366 51.5918
lfingers 7.12502
lthumb 14.2144 81.0855
rfemur 13.108 4.89801 35.1937
rtibia 13.0509
rfoot -13.2865 -7.41564
rtoes 13.1587
lfemur -26.213 -10.0112 -10.2595
ltibia 22.9073
lfoot -12.0581 12.9784
ltoes -17.9124
234
root 0.528525 18.0125 11.1655 -4.50425 -2.87248 -7.58447
lowerback 14.179 0.344713 6.1268
upperback -0.689844 1.83155 3.83132
thorax -8.67786 0.700743 0.262964
lowerneck -10.7331 -1.21004 -2.61717
upperneck 28.1063 -1.07914 -0.239227
head 10.8197 -0.796767 0.23164
rclavicle 1.92526e-014 2.90226e-014
rhumerus -28.3809 -3.2208 -79.227
rradius 36.9731
rwrist -3.17295
rhand -14.0798 9.0786
rfingers 7.12502
rthumb 12.0522 -20.5543
lclavicle 1.92526e-014 2.90226e-014
lhumerus -40.416 3.32637 87.8374
lradius 40.8543
lwrist 5.51682
lhand -12.0079 51.6689
lfingers 7.12502
lthumb 14.0494 81.1741
rfemur 14.1515 5.29592 35.7169
rtibia 12.6427
rfoot -12.9694 -7.55757
rtoes 11.9502
lfemur -25.5317 -11.2534 -9.28311
ltibia 21.1891
lfoot -13.0105 14.2445
ltoes -16.0542
235
root 0.541225 17.9998 11.3389 -4.47202 -3.18438 -7.57826
lowerback 14.018 0.449407 6.17234
upperback -0.714135 1.96315 3.81314
thorax -8.60531 0.76301 0.191873
lowerneck -10.6024 -1.20968 -2.55641
upperneck 28.0815 -1.08521 -0.280098
head 10.7837 -0.797853 0.206569
rclavicle 1.69324e-014 -2.0276e-014
rhumerus -28.4695 -3.12153 -79.2699
rradius 37.0983
rwrist -3.05265
rhand -14.1378 8.84704
rfingers 7.12502
rthumb 11.9962 -20.7892
lclavicle 1.69324e-014 -2.0276e-014
lhumerus -40.6043 3.37626 87.8388
lradius 40.872
lwrist 5.71887
lhand -12.0884 51.6223
lfingers 7.12502
lthumb 13.9718 81.1328
rfemur 14.9447 5.43456 35.6547
rtibia 12.337
rfoot -12.9982 -7.22142
rtoes 8.62161
lfemur -25.2343 -12.2843 -8.86427
ltibia 19.855
lfoot -13.808 15.195
ltoes -15.4021
